<svg xmlns="http://www.w3.org/2000/svg" xmlns:xlink="http://www.w3.org/1999/xlink" width="650" zoomAndPan="magnify" viewBox="0 0 487.5 116.999995" height="156" preserveAspectRatio="xMidYMid meet" version="1.0"><defs><clipPath id="55b64b92ad"><path d="M 21 0.0585938 L 162 0.0585938 L 162 116.9375 L 21 116.9375 Z M 21 0.0585938 " clip-rule="nonzero"/></clipPath><clipPath id="77bdec4ac9"><path d="M 39 50 L 135 50 L 135 116.9375 L 39 116.9375 Z M 39 50 " clip-rule="nonzero"/></clipPath></defs><g clip-path="url(#55b64b92ad)"><path fill="#10c0cd" d="M 136.6875 -0.164062 C 137.351562 -0.171875 138.011719 -0.175781 138.695312 -0.183594 C 144.921875 -0.160156 144.921875 -0.160156 147.621094 1.84375 C 148.007812 2.691406 148.394531 3.539062 148.792969 4.410156 C 150.410156 7.992188 150.410156 7.992188 156.546875 10.765625 C 156.546875 16.066406 156.546875 21.367188 156.546875 26.828125 C 154.417969 27.890625 152.835938 27.902344 150.464844 28.054688 C 146.8125 28.390625 144.265625 28.863281 141.375 31.289062 C 140.300781 34.507812 140.1875 36.824219 140.480469 40.210938 C 141.980469 42.613281 141.980469 42.613281 144.109375 44.726562 C 150.988281 52.570312 156.042969 61.847656 155.902344 72.464844 C 155.113281 80.5625 151.574219 87.347656 146.730469 93.742188 C 150.128906 101.320312 153.539062 107.488281 159.472656 113.46875 C 161.007812 115.15625 161.007812 115.15625 161.007812 116.941406 C 155.414062 116.644531 149.816406 116.351562 144.050781 116.046875 C 141.375 108.019531 141.375 108.019531 140.527344 105.476562 C 129.691406 70.871094 129.691406 70.871094 105.507812 45.507812 C 98.992188 42.472656 92.214844 42.734375 85.167969 42.667969 C 83.039062 42.636719 80.910156 42.609375 78.78125 42.578125 C 75.441406 42.535156 72.105469 42.496094 68.769531 42.460938 C 65.535156 42.425781 62.300781 42.378906 59.066406 42.332031 C 58.082031 42.324219 57.101562 42.316406 56.089844 42.308594 C 45.929688 42.148438 36.117188 41.621094 28.03125 34.855469 C 24.324219 30.636719 22.5 27.066406 21.785156 21.472656 C 22.667969 21.828125 23.554688 22.183594 24.46875 22.550781 C 25.691406 23.027344 26.917969 23.503906 28.140625 23.984375 C 28.71875 24.214844 29.296875 24.449219 29.890625 24.6875 C 42.289062 29.46875 55.246094 30.265625 68.359375 31.289062 C 80.910156 32.273438 93.269531 33.582031 105.675781 35.75 C 105.382812 35.160156 105.085938 34.570312 104.785156 33.964844 C 104.011719 24.550781 105.082031 17.550781 110.25 9.652344 C 117.898438 2.339844 126.316406 -0.273438 136.6875 -0.164062 Z M 118.332031 11.28125 C 113.191406 17.015625 111.304688 22.699219 111.578125 30.375 C 112.433594 37.058594 116.101562 41.691406 120.214844 46.804688 C 120.699219 47.40625 121.183594 48.007812 121.683594 48.628906 C 122.179688 49.246094 122.675781 49.863281 123.1875 50.5 C 129.914062 59.199219 134.519531 69.234375 139.316406 79.078125 C 140.390625 81.332031 140.390625 81.332031 142.265625 83.035156 C 143.144531 82.054688 144.019531 81.070312 144.890625 80.082031 C 145.617188 79.257812 145.617188 79.257812 146.363281 78.417969 C 148.738281 75.347656 148.9375 72.128906 148.859375 68.378906 C 147.664062 60.433594 141.707031 54.351562 136.570312 48.554688 C 128.691406 39.617188 122.117188 31.359375 122.285156 19.007812 C 122.949219 13.5 125.898438 10.054688 129.773438 6.304688 C 125.648438 6.304688 121.390625 8.628906 118.332031 11.28125 Z M 136.464844 10.542969 C 135.777344 11 135.085938 11.453125 134.375 11.921875 C 131.652344 14.074219 130.113281 16.121094 128.878906 19.355469 C 128.878906 23.953125 131.097656 27.359375 133.34375 31.289062 C 133.929688 31.289062 134.519531 31.289062 135.128906 31.289062 C 135.679688 30.460938 136.230469 29.632812 136.800781 28.777344 C 139.023438 25.441406 140.679688 23.707031 144.566406 22.605469 C 145.355469 22.472656 146.140625 22.335938 146.953125 22.199219 C 147.75 22.054688 148.542969 21.914062 149.363281 21.769531 C 149.96875 21.671875 150.570312 21.574219 151.191406 21.472656 C 151.640625 18.5 151.640625 18.5 151.191406 15.226562 C 148.710938 13.203125 148.710938 13.203125 145.835938 11.660156 C 144.945312 10.46875 144.050781 9.28125 143.160156 8.089844 C 140 8.089844 139.046875 8.804688 136.464844 10.542969 Z M 136.464844 10.542969 " fill-opacity="1" fill-rule="nonzero"/></g><g clip-path="url(#77bdec4ac9)"><path fill="#0ea6b8" d="M 39.632812 50.917969 C 40.375 51.097656 41.121094 51.28125 41.886719 51.46875 C 51.222656 53.449219 60.410156 53.894531 69.921875 54.09375 C 104.882812 54.890625 104.882812 54.890625 116.328125 65.359375 C 126.464844 76.4375 134.234375 101.847656 134.234375 116.941406 C 130.40625 116.941406 126.578125 116.941406 122.632812 116.941406 C 121.734375 114.25 121.648438 112.441406 121.683594 109.636719 C 121.691406 108.832031 121.699219 108.027344 121.707031 107.199219 C 121.71875 106.585938 121.730469 105.972656 121.742188 105.339844 C 119.710938 106.019531 117.683594 106.707031 115.660156 107.40625 C 115.085938 107.59375 114.511719 107.785156 113.921875 107.980469 C 109.65625 109.40625 109.65625 109.40625 106.566406 112.480469 C 106.273438 113.949219 105.980469 115.421875 105.675781 116.941406 C 98.605469 116.644531 91.539062 116.351562 84.257812 116.046875 C 87.429688 108.113281 92.550781 104.359375 100.210938 101.046875 C 113.476562 95.527344 113.476562 95.527344 119.957031 95.527344 C 118.484375 90.816406 117.011719 86.105469 115.492188 81.25 C 114.148438 81.914062 112.804688 82.578125 111.421875 83.257812 C 107.347656 85.128906 103.386719 86.378906 99.039062 87.441406 C 85.664062 90.816406 77.375 96.507812 69.976562 108.019531 C 68.550781 110.535156 68.550781 110.535156 69.085938 116.941406 C 63.488281 116.941406 57.894531 116.941406 52.128906 116.941406 C 53.546875 107 57.859375 99.3125 65.644531 92.90625 C 74.414062 86.570312 82.652344 82.976562 93.179688 80.359375 C 95.304688 79.761719 97.425781 79.148438 99.539062 78.519531 C 100.460938 78.25 101.386719 77.984375 102.335938 77.707031 C 104.746094 76.804688 106.398438 75.765625 108.351562 74.113281 C 108.382812 72.429688 108.382812 72.429688 107.460938 70.542969 C 98.917969 64.90625 90.167969 65.523438 80.183594 66.53125 C 75.054688 67 69.9375 67.140625 64.789062 67.199219 C 63.988281 67.21875 63.191406 67.238281 62.367188 67.257812 C 54.988281 67.296875 50.117188 65.371094 44.609375 60.390625 C 41.84375 57.554688 39.632812 55.023438 39.632812 50.917969 Z M 39.632812 50.917969 " fill-opacity="1" fill-rule="nonzero"/></g><path fill="#000000" d="M 182.347656 56.167969 C 183.257812 56.167969 184.167969 56.167969 185.109375 56.167969 C 186.585938 56.175781 186.585938 56.175781 188.097656 56.183594 C 189.105469 56.183594 190.113281 56.183594 191.152344 56.1875 C 194.378906 56.191406 197.609375 56.203125 200.835938 56.214844 C 203.019531 56.21875 205.207031 56.222656 207.390625 56.226562 C 212.753906 56.234375 218.117188 56.25 223.480469 56.269531 C 224.375 58.945312 224.375 58.945312 223.722656 60.738281 C 221.730469 63.625 219.886719 65.671875 216.355469 66.496094 C 211.035156 67.15625 205.683594 67.035156 200.332031 66.976562 C 198.683594 66.984375 197.035156 66.992188 195.386719 67.007812 C 191.367188 67.035156 187.34375 67.015625 183.320312 66.976562 C 183.320312 69.035156 183.320312 71.097656 183.320312 73.222656 C 184.191406 73.234375 185.058594 73.246094 185.953125 73.261719 C 189.1875 73.3125 192.425781 73.382812 195.660156 73.457031 C 197.058594 73.484375 198.453125 73.511719 199.851562 73.53125 C 201.867188 73.558594 203.878906 73.605469 205.894531 73.65625 C 206.824219 73.664062 206.824219 73.664062 207.777344 73.675781 C 211.660156 73.789062 214.125 74.445312 217.234375 76.789062 C 220.125 80.382812 220.296875 83.40625 220.304688 87.941406 C 220.320312 89.09375 220.335938 90.242188 220.355469 91.429688 C 219.84375 95.140625 219.046875 96.542969 216.34375 99.09375 C 213.269531 100.570312 210.835938 101.101562 207.441406 101.082031 C 206.15625 101.082031 206.15625 101.082031 204.84375 101.082031 C 203.929688 101.074219 203.015625 101.0625 202.074219 101.054688 C 201.128906 101.050781 200.183594 101.050781 199.210938 101.046875 C 196.203125 101.035156 193.191406 101.015625 190.183594 100.992188 C 188.136719 100.980469 186.09375 100.972656 184.050781 100.96875 C 179.046875 100.945312 174.042969 100.917969 169.042969 100.878906 C 169.71875 96.726562 170.949219 93.644531 174.394531 91.066406 C 177.019531 90.304688 179.53125 90.316406 182.25 90.347656 C 182.996094 90.335938 183.742188 90.324219 184.511719 90.308594 C 186.886719 90.277344 189.257812 90.28125 191.632812 90.285156 C 193.246094 90.269531 194.859375 90.25 196.472656 90.230469 C 200.417969 90.183594 204.363281 90.167969 208.308594 90.171875 C 208.308594 88.113281 208.308594 86.050781 208.308594 83.925781 C 205.789062 82.667969 203.722656 82.984375 200.910156 83.042969 C 199.773438 83.058594 198.640625 83.074219 197.472656 83.085938 C 195.082031 83.125 192.695312 83.171875 190.304688 83.226562 C 178.980469 83.351562 178.980469 83.351562 174.394531 80.359375 C 170.726562 76.082031 171.164062 71.050781 171.335938 65.691406 C 171.859375 61.355469 172.835938 59.867188 176.179688 57.160156 C 178.398438 56.054688 179.867188 56.160156 182.347656 56.167969 Z M 182.347656 56.167969 " fill-opacity="1" fill-rule="nonzero"/><path fill="#000000" d="M 364.683594 55.636719 C 370.628906 56.75 372.796875 60.417969 376.09375 65.191406 C 376.949219 66.328125 377.8125 67.457031 378.679688 68.585938 C 380.460938 70.914062 382.222656 73.253906 383.960938 75.613281 C 387.558594 80.488281 391.199219 85.328125 394.835938 90.171875 C 395.132812 78.984375 395.425781 67.796875 395.730469 56.269531 C 401.976562 56.269531 401.976562 56.269531 404.121094 57.527344 C 406.277344 61.023438 406.058594 64.226562 406.019531 68.257812 C 406.023438 69.078125 406.027344 69.894531 406.03125 70.738281 C 406.035156 72.464844 406.027344 74.195312 406.011719 75.921875 C 405.992188 78.566406 406.011719 81.207031 406.035156 83.851562 C 406.03125 85.53125 406.027344 87.210938 406.019531 88.890625 C 406.027344 89.679688 406.035156 90.472656 406.042969 91.285156 C 405.960938 96.738281 405.960938 96.738281 403.910156 99.582031 C 400.34375 101.976562 396.75 101.628906 392.582031 101.496094 C 387.230469 100.433594 385.261719 97.195312 382.34375 92.851562 C 381.082031 91.191406 379.816406 89.539062 378.550781 87.886719 C 377.527344 86.507812 376.507812 85.125 375.492188 83.742188 C 373.164062 80.59375 370.804688 77.46875 368.453125 74.335938 C 367.523438 73.097656 366.589844 71.855469 365.660156 70.613281 C 364.980469 69.707031 364.300781 68.800781 363.601562 67.867188 C 363.578125 68.835938 363.554688 69.804688 363.53125 70.800781 C 363.449219 74.382812 363.359375 77.960938 363.269531 81.542969 C 363.230469 83.09375 363.191406 84.644531 363.15625 86.199219 C 363.105469 88.421875 363.046875 90.648438 362.988281 92.875 C 362.96875 93.921875 362.96875 93.921875 362.945312 94.988281 C 362.808594 99.886719 362.808594 99.886719 361.816406 100.878906 C 360.328125 100.96875 358.839844 100.996094 357.351562 100.992188 C 356.136719 100.996094 356.136719 100.996094 354.898438 101 C 352.890625 100.878906 352.890625 100.878906 352 99.988281 C 351.902344 98.714844 351.863281 97.4375 351.855469 96.160156 C 351.847656 95.347656 351.835938 94.535156 351.828125 93.699219 C 351.824219 92.8125 351.820312 91.929688 351.816406 91.015625 C 351.808594 89.660156 351.808594 89.660156 351.800781 88.28125 C 351.792969 86.363281 351.789062 84.449219 351.785156 82.53125 C 351.773438 79.597656 351.746094 76.664062 351.71875 73.726562 C 351.714844 71.871094 351.707031 70.011719 351.707031 68.152344 C 351.695312 67.273438 351.683594 66.390625 351.671875 65.484375 C 351.675781 64.664062 351.675781 63.847656 351.679688 63.003906 C 351.675781 62.28125 351.671875 61.5625 351.671875 60.820312 C 352.761719 54.578125 359.644531 55.375 364.683594 55.636719 Z M 364.683594 55.636719 " fill-opacity="1" fill-rule="nonzero"/><path fill="#000000" d="M 282.835938 56.183594 C 285.363281 56.210938 287.890625 56.238281 290.417969 56.269531 C 290.417969 62.15625 290.417969 68.046875 290.417969 74.113281 C 299.546875 74.113281 308.675781 74.113281 318.085938 74.113281 C 318.050781 68.574219 318.050781 68.574219 318.003906 63.035156 C 318 62.351562 318 61.664062 317.996094 60.957031 C 317.992188 60.25 317.988281 59.546875 317.984375 58.820312 C 318.085938 57.160156 318.085938 57.160156 318.976562 56.269531 C 322.214844 56.269531 325.457031 56.269531 328.792969 56.269531 C 328.792969 70.992188 328.792969 85.710938 328.792969 100.878906 C 325.554688 100.878906 322.316406 100.878906 318.976562 100.878906 C 318.085938 99.988281 318.085938 99.988281 317.984375 98.332031 C 317.988281 97.625 317.992188 96.917969 317.996094 96.191406 C 318 95.507812 318 94.820312 318.003906 94.113281 C 318.011719 93.234375 318.019531 92.359375 318.027344 91.457031 C 318.046875 88.675781 318.066406 85.898438 318.085938 83.035156 C 308.953125 83.035156 299.824219 83.035156 290.417969 83.035156 C 290.453125 88.574219 290.453125 88.574219 290.496094 94.113281 C 290.5 94.800781 290.503906 95.484375 290.503906 96.191406 C 290.507812 96.898438 290.515625 97.601562 290.519531 98.332031 C 290.417969 99.988281 290.417969 99.988281 289.523438 100.878906 C 287.871094 100.945312 286.214844 100.953125 284.5625 100.9375 C 283.65625 100.925781 282.753906 100.917969 281.824219 100.910156 C 281.125 100.902344 280.425781 100.890625 279.707031 100.878906 C 279.683594 94.671875 279.667969 88.460938 279.660156 82.25 C 279.65625 80.136719 279.648438 78.023438 279.640625 75.90625 C 279.628906 72.875 279.625 69.84375 279.621094 66.8125 C 279.617188 65.859375 279.613281 64.910156 279.605469 63.929688 C 279.605469 63.054688 279.605469 62.175781 279.605469 61.277344 C 279.605469 60.5 279.601562 59.726562 279.601562 58.929688 C 279.761719 56.246094 280.136719 56.289062 282.835938 56.183594 Z M 282.835938 56.183594 " fill-opacity="1" fill-rule="nonzero"/><path fill="#000000" d="M 246.132812 55.515625 C 248.464844 55.601562 250.792969 55.625 253.128906 55.640625 C 254.625 55.667969 256.121094 55.695312 257.621094 55.726562 C 258.652344 55.742188 258.652344 55.742188 259.710938 55.761719 C 264.886719 55.960938 269.652344 56.789062 273.347656 60.730469 C 275.695312 66.988281 276.039062 74.757812 274.351562 81.25 C 272.183594 84.894531 270.300781 86.230469 266.320312 87.496094 C 263.519531 87.699219 263.519531 87.699219 260.417969 87.671875 C 259.304688 87.664062 258.191406 87.660156 257.046875 87.652344 C 255.3125 87.632812 255.3125 87.632812 253.546875 87.609375 C 252.375 87.601562 251.203125 87.59375 249.996094 87.582031 C 247.109375 87.5625 244.21875 87.535156 241.332031 87.496094 C 241.332031 84.550781 241.332031 81.609375 241.332031 78.574219 C 242.726562 78.519531 244.125 78.464844 245.5625 78.410156 C 247.386719 78.335938 249.210938 78.261719 251.039062 78.183594 C 251.957031 78.148438 252.878906 78.113281 253.828125 78.078125 C 254.710938 78.039062 255.589844 78.003906 256.496094 77.964844 C 257.308594 77.933594 258.125 77.898438 258.960938 77.867188 C 260.996094 77.800781 260.996094 77.800781 262.75 76.789062 C 263.980469 71.582031 263.980469 71.582031 261.859375 66.976562 C 259.089844 66.519531 259.089844 66.519531 255.828125 66.519531 C 254.746094 66.488281 253.660156 66.460938 252.546875 66.429688 C 251.164062 66.40625 249.785156 66.386719 248.359375 66.363281 C 243.980469 66.269531 239.597656 66.179688 235.085938 66.082031 C 235.085938 77.566406 235.085938 89.050781 235.085938 100.878906 C 231.84375 100.878906 228.605469 100.878906 225.265625 100.878906 C 225.113281 95.816406 225 90.757812 224.925781 85.691406 C 224.894531 83.972656 224.851562 82.253906 224.796875 80.535156 C 224.300781 64.472656 224.300781 64.472656 227.355469 59.152344 C 232.21875 54.328125 239.765625 55.285156 246.132812 55.515625 Z M 246.132812 55.515625 " fill-opacity="1" fill-rule="nonzero"/><path fill="#000000" d="M 335.933594 56.269531 C 339.171875 56.269531 342.414062 56.269531 345.75 56.269531 C 345.75 70.992188 345.75 85.710938 345.75 100.878906 C 342.511719 100.878906 339.269531 100.878906 335.933594 100.878906 C 334.503906 99.453125 334.925781 97.945312 334.925781 95.96875 C 334.921875 95.113281 334.921875 94.261719 334.917969 93.378906 C 334.917969 92.449219 334.921875 91.523438 334.921875 90.5625 C 334.921875 89.617188 334.921875 88.667969 334.921875 87.695312 C 334.917969 85.6875 334.921875 83.679688 334.925781 81.671875 C 334.929688 78.589844 334.925781 75.503906 334.917969 72.421875 C 334.917969 70.476562 334.921875 68.53125 334.921875 66.585938 C 334.921875 65.65625 334.917969 64.726562 334.917969 63.769531 C 334.917969 62.914062 334.921875 62.058594 334.925781 61.179688 C 334.925781 60.425781 334.925781 59.667969 334.925781 58.890625 C 335.042969 57.160156 335.042969 57.160156 335.933594 56.269531 Z M 335.933594 56.269531 " fill-opacity="1" fill-rule="nonzero"/><path fill="#14c4ec" d="M 446.304688 81.234375 C 452.5 83.128906 456.492188 89.121094 460.476562 93.992188 C 461.734375 95.5625 461.734375 95.5625 463.277344 96.839844 C 464.449219 98.203125 464.449219 98.203125 464.449219 101.773438 C 460.476562 102.8125 456.726562 103.273438 452.847656 101.773438 C 447.464844 97.824219 442.121094 92.269531 438.566406 86.605469 C 438.566406 80.964844 441.136719 81.265625 446.304688 81.234375 Z M 446.304688 81.234375 " fill-opacity="1" fill-rule="nonzero"/><path fill="#137dbe" d="M 428.917969 81.976562 C 429.722656 82 430.527344 82.023438 431.355469 82.050781 C 432.273438 82.097656 432.273438 82.097656 433.214844 82.144531 C 433.800781 83.320312 434.390625 84.5 435 85.714844 C 431.195312 90.179688 427.257812 94.417969 423.039062 98.503906 C 421.535156 99.921875 421.535156 99.921875 420.71875 101.773438 C 416.59375 101.773438 412.472656 101.773438 408.222656 101.773438 C 409.121094 98.191406 409.386719 97.628906 411.90625 95.304688 C 414.859375 92.484375 417.546875 89.523438 420.203125 86.425781 C 420.667969 85.894531 421.132812 85.367188 421.609375 84.820312 C 422.015625 84.3125 422.421875 83.804688 422.84375 83.285156 C 424.886719 81.671875 426.351562 81.875 428.917969 81.976562 Z M 428.917969 81.976562 " fill-opacity="1" fill-rule="nonzero"/><path fill="#12dde0" d="M 464.449219 56.269531 C 463.722656 61.722656 460.699219 64.335938 456.976562 68.148438 C 456.378906 68.808594 455.785156 69.46875 455.171875 70.148438 C 451.613281 73.800781 449.195312 75.457031 444 75.601562 C 441.511719 75.507812 441.511719 75.507812 439.460938 75.007812 C 438.871094 74.121094 438.28125 73.238281 437.675781 72.328125 C 438.246094 71.769531 438.820312 71.207031 439.40625 70.628906 C 440.179688 69.863281 440.953125 69.101562 441.746094 68.3125 C 442.984375 67.101562 442.984375 67.101562 444.242188 65.867188 C 446.269531 63.753906 447.871094 61.65625 449.554688 59.28125 C 453.4375 54.613281 458.886719 55.667969 464.449219 56.269531 Z M 464.449219 56.269531 " fill-opacity="1" fill-rule="nonzero"/><path fill="#0aaaa1" d="M 408.222656 56.269531 C 412.207031 55.210938 415.929688 54.796875 419.824219 56.269531 C 422.921875 58.429688 425.546875 60.945312 428.191406 63.628906 C 429.21875 64.667969 429.21875 64.667969 430.269531 65.726562 C 433.839844 69.554688 433.839844 69.554688 434.996094 71.4375 C 434.726562 73.449219 434.726562 73.449219 434.105469 75.007812 C 430.25 75.957031 427.242188 76.058594 423.394531 75.007812 C 419.039062 71.730469 415.589844 67.375 412.183594 63.15625 C 410.929688 61.585938 410.929688 61.585938 409.398438 60.253906 C 408.222656 58.945312 408.222656 58.945312 408.222656 56.269531 Z M 408.222656 56.269531 " fill-opacity="1" fill-rule="nonzero"/></svg>