<svg width="135" height="111" viewBox="0 0 135 111" fill="none" xmlns="http://www.w3.org/2000/svg">
<path d="M114.121 38.4287C114.121 38.4287 112.922 32.3596 115.816 28.7594C118.294 25.6648 122.483 25.3391 125.526 25.3562C125.804 25.3562 130.246 26.0163 130.611 23.4532C130.637 23.2646 130.663 13.2439 130.646 10.8094C130.646 10.5094 124.969 8.65781 122.64 4.60321C122.605 4.5432 119.641 5.649 118.398 6.06904C118.12 6.16333 120.649 12.361 126.212 13.9211C126.299 13.9468 126.186 18.1128 126.178 20.1015C126.178 20.3587 126.091 20.513 125.986 20.5987C125.917 20.6673 119.954 19.6387 114.843 23.2989C110.488 26.4192 109.245 32.6597 109.254 32.6597" fill="url(#paint0_linear_2_2405)"/>
<path d="M82.4724 34.8363C82.4724 34.8363 78.8998 27.7644 81.9509 18.2922C84.8367 9.31721 91.2864 4.42255 99.0313 1.51661C105.325 -0.840713 118.911 0.110789 120.51 0.60797C121.371 0.873705 121.362 1.71377 121.666 2.61384C122.057 3.77107 123.013 5.13403 122.953 5.15118C120.458 5.64836 113.478 6.3427 107.202 12.326C102.1 17.195 103.829 22.2782 105.568 25.6213C108.48 31.2275 113.348 36.9365 117.294 41.5997C122.622 47.9088 124.309 51.0204 124.787 51.8519C126.803 55.4179 129.376 60.9469 129.593 66.2616C129.993 75.8538 123.265 85.3945 122.414 86.2346C120.762 87.8633 119.589 77.5682 119.945 77.1139C123.57 72.5621 124.448 67.3245 123.057 62.5413C121.805 58.2553 118.937 54.5779 115.59 50.489C112.635 46.8801 109.306 42.8341 106.35 39.3452C99.8136 31.6389 97.6492 25.6813 97.2493 22.2439C96.3801 14.6833 100.813 9.72867 104.029 7.14848C105.82 5.70836 107.237 5.00545 107.141 4.99688C104.56 4.8683 96.58 5.2369 90.6432 13.7661C84.8454 22.0811 87.2271 31.7418 88.444 34.2277C91.2864 40.0482 96.9364 46.0143 101.022 51.8862C105.533 58.3667 108.367 64.2386 108.854 65.1644C110.227 67.7532 112.096 71.3791 113.956 75.2966C116.146 79.9169 118.519 85.8917 120.51 90.272C122.909 95.5524 124.795 98.9298 125.63 100.301C129.437 106.568 135.252 110.888 134.948 110.888C130.471 110.845 118.998 110.854 118.98 110.776C118.12 106.259 117.033 102.599 115.825 98.7756C113.869 92.5608 111.722 87.1689 109.619 82.0085C100.37 59.3268 90.1216 46.3401 81.7248 42.1998C76.3095 39.5253 67.9823 39.1909 60.1331 39.3024C47.4858 39.4824 31.97 40.2196 19.427 38.1537C9.19614 36.4736 4.81521 30.8846 2.47698 26.4014C0.981898 23.5469 -0.0785654 20.8295 -0.000334546 20.881C3.61567 23.144 14.8201 27.1472 24.8423 28.553C36.2119 30.1474 50.4673 30.4903 60.3591 31.5275C76.5355 33.2248 82.0812 34.8878 82.0812 34.8878" fill="url(#paint1_linear_2_2405)"/>
<path d="M121.31 75.1772C121.31 75.1772 119.276 78.4261 115.617 80.6548C113.974 81.6577 119.858 89.5955 119.928 89.5184C120.389 88.9612 122.162 86.7839 123.37 85.0266C123.631 84.6408 123.874 84.2808 124.057 83.9551" fill="url(#paint2_linear_2_2405)"/>
<path d="M98.0841 110.923H108.758C106.611 102.839 105.742 99.1105 104.995 96.436C103.934 92.6043 99.8574 76.6088 95.4504 68.671C93.5815 65.3108 87.662 58.2559 79.4391 55.2814C76.8575 54.3471 72.3809 53.0184 60.8202 52.5984C51.8844 52.2726 41.1407 52.5383 32.8222 51.8954C23.5127 51.1754 17.2455 48.8266 17.2455 48.8266C20.3052 54.1328 23.5649 59.1131 29.8581 61.9334C35.004 64.2392 42.2881 63.6392 50.7458 62.8677C57.0825 62.2934 64.5578 61.7019 69.6255 61.7019C78.3873 61.7019 81.5861 64.8907 83.8113 66.8452C85.5411 68.3624 86.1843 71.4912 81.873 73.5485C79.3609 74.7486 77.3182 75.7687 68.4433 77.6889C57.7344 80.0119 49.92 83.7579 40.9843 91.4042C33.1525 98.1076 30.0841 108.6 29.493 110.863C29.4322 111.103 41.9057 110.974 45.4782 110.931C45.626 110.931 44.1309 109.731 44.0787 107.451C44.0614 106.414 44.4786 105.111 45.2348 103.662C49.1898 96.1103 55.1267 91.207 59.186 88.524C60.1335 87.8982 63.6191 85.7723 69.2952 83.9122C73.7196 82.4549 80.0302 81.3834 83.8896 79.849C87.5751 78.3832 89.9481 76.3002 90.8956 75.3573C91.052 75.203 92.8948 79.7633 94.1204 84.0065C94.9636 86.921 95.5807 90.0412 95.8502 91.4813C95.8502 91.4813 85.9757 92.5529 72.5113 99.2391C65.0446 102.951 61.5416 109.26 60.8115 110.709C60.7854 110.76 80.4648 110.923 80.7082 110.923C80.8386 110.923 79.6651 107.597 83.8374 104.648C87.549 102.025 94.8767 100.242 97.2149 99.7191L98.0754 110.931L98.0841 110.923Z" fill="url(#paint3_linear_2_2405)"/>
<defs>
<linearGradient id="paint0_linear_2_2405" x1="36.6903" y1="19.5787" x2="118.684" y2="21.5706" gradientUnits="userSpaceOnUse">
<stop stop-color="#137DBE"/>
<stop offset="0.44" stop-color="#0AAAA1"/>
<stop offset="0.9" stop-color="#12DDE0"/>
</linearGradient>
<linearGradient id="paint1_linear_2_2405" x1="35.8642" y1="53.5235" x2="117.857" y2="55.5155" gradientUnits="userSpaceOnUse">
<stop stop-color="#137DBE"/>
<stop offset="0.44" stop-color="#0AAAA1"/>
<stop offset="0.9" stop-color="#12DDE0"/>
</linearGradient>
<linearGradient id="paint2_linear_2_2405" x1="35.2125" y1="80.3291" x2="117.206" y2="82.3211" gradientUnits="userSpaceOnUse">
<stop stop-color="#137DBE"/>
<stop offset="0.44" stop-color="#0AAAA1"/>
<stop offset="0.9" stop-color="#12DDE0"/>
</linearGradient>
<linearGradient id="paint3_linear_2_2405" x1="35.2213" y1="80.1576" x2="117.215" y2="82.1496" gradientUnits="userSpaceOnUse">
<stop stop-color="#137DBE"/>
<stop offset="0.44" stop-color="#0AAAA1"/>
<stop offset="0.9" stop-color="#12DDE0"/>
</linearGradient>
</defs>
</svg>